<?xml version="1.0" encoding="utf-8"?>
<!-- Generator: Adobe Illustrator 18.0.0, SVG Export Plug-In . SVG Version: 6.00 Build 0)  -->
<!DOCTYPE svg PUBLIC "-//W3C//DTD SVG 1.1//EN" "http://www.w3.org/Graphics/SVG/1.1/DTD/svg11.dtd">
<svg version="1.1" id="Layer_1" xmlns="http://www.w3.org/2000/svg" xmlns:xlink="http://www.w3.org/1999/xlink" x="0px" y="0px"
	 viewBox="-783.1 293.3 50.8 65.9" enable-background="new -783.1 293.3 50.8 65.9" xml:space="preserve">
<path fill="#00EA00" d="M-801.7,756.7c1.7,0,3.2-0.7,4.4-1.9s1.7-2.7,1.7-4.4s-0.5-3.2-1.7-4.4s-2.7-1.9-4.4-1.9s-3.2,0.7-4.4,1.9
	s-1.7,2.7-1.7,4.4s0.5,3.2,1.7,4.4S-803.4,756.7-801.7,756.7z M-801.7,779.9c6.1-5.8,10.7-11.2,13.9-16.1c2.9-4.9,4.4-9,4.4-12.9
	c0-5.8-1.7-10.5-5.4-14.1c-3.4-3.7-7.8-5.6-12.9-5.6c-5.1,0-9.5,1.9-12.9,5.6s-5.4,8.3-5.4,14.1c0,3.7,1.5,8,4.4,12.9
	C-812.5,768.6-807.8,774-801.7,779.9z M-801.7,788.4c-8.3-7.3-14.4-13.9-18.3-20.2c-4.1-6.1-6.1-11.9-6.1-17.3c0-8,2.4-14.1,7.3-19
	c4.9-4.6,10.5-7.1,17.1-7.1c6.3,0,12.2,2.4,17.1,7.1s7.3,11,7.3,19c0,5.4-1.9,11-6.1,17.3C-787.4,774.2-793.4,781.1-801.7,788.4z"/>
<path fill="#FF0000" d="M-865.1,756c1.7,0,3.2-0.7,4.4-1.9s1.7-2.7,1.7-4.4s-0.5-3.2-1.7-4.4s-2.7-1.9-4.4-1.9s-3.2,0.7-4.4,1.9
	s-1.7,2.7-1.7,4.4s0.5,3.2,1.7,4.4C-868.3,755.2-866.8,756-865.1,756z M-865.1,779.1c6.1-5.8,10.7-11.2,13.9-16.1
	c2.9-4.9,4.4-9,4.4-12.9c0-5.8-1.7-10.5-5.4-14.1c-3.4-3.7-7.8-5.6-12.9-5.6c-5.1,0-9.5,1.9-12.9,5.6s-5.4,8.3-5.4,14.1
	c0,3.7,1.5,8,4.4,12.9C-875.8,767.9-871.2,773.3-865.1,779.1z M-865.1,787.6c-8.3-7.3-14.4-13.9-18.3-20.2
	c-4.1-6.1-6.1-11.9-6.1-17.3c0-8,2.4-14.1,7.3-19c4.9-4.6,10.5-7.1,17.1-7.1c6.3,0,12.2,2.4,17.1,7.1c4.9,4.6,7.3,11,7.3,19
	c0,5.4-1.9,11-6.1,17.3C-850.7,773.5-856.8,780.3-865.1,787.6z"/>
<path fill="#FFFFFF" d="M-983.8,751.6c1.7,0,3.2-0.7,4.4-1.9s1.7-2.7,1.7-4.4s-0.5-3.2-1.7-4.4s-2.7-1.9-4.4-1.9s-3.2,0.7-4.4,1.9
	s-1.7,2.7-1.7,4.4s0.5,3.2,1.7,4.4C-986.9,750.9-985.5,751.6-983.8,751.6z M-983.8,775c6.1-5.8,10.7-11.2,13.9-16.1
	c2.9-4.9,4.4-9,4.4-12.9c0-5.8-1.7-10.5-5.4-14.1c-3.4-3.7-7.8-5.6-12.9-5.6c-5.1,0-9.5,1.9-12.9,5.6s-5.4,8.3-5.4,14.1
	c0,3.7,1.5,8,4.4,12.9C-994.7,763.5-990.1,768.9-983.8,775z M-983.8,783.3c-8.3-7.3-14.4-13.9-18.3-20.2c-4.1-6.1-6.1-11.9-6.1-17.3
	c0-8,2.4-14.1,7.3-19c4.9-4.6,10.5-7.1,17.1-7.1c6.3,0,12.2,2.4,17.1,7.1c4.9,4.6,7.3,11,7.3,19c0,5.4-1.9,11-6.1,17.3
	C-969.6,769.4-975.7,776-983.8,783.3z"/>
<defs>
	<filter id="Adobe_OpacityMaskFilter" filterUnits="userSpaceOnUse" x="-1150.1" y="-83.2" width="100" height="408.3">
		<feColorMatrix  type="matrix" values="1 0 0 0 0  0 1 0 0 0  0 0 1 0 0  0 0 0 1 0"/>
	</filter>
</defs>
<mask maskUnits="userSpaceOnUse" x="-1150.1" y="-83.2" width="100" height="408.3" id="SVGID_2_">
	<g filter="url(#Adobe_OpacityMaskFilter)">
		<path id="XMLID_2_" fill="#FFFFFF" d="M-1100.1,84.8c3.5,0,6.6-1.4,9-3.9c2.5-2.5,3.5-5.5,3.5-9s-1-6.6-3.5-9
			c-2.5-2.5-5.5-3.9-9-3.9s-6.6,1.4-9,3.9c-2.5,2.5-3.5,5.5-3.5,9s1,6.6,3.5,9C-1106.1,83.4-1103,84.8-1100.1,84.8z M-1100.1,132.7
			c12.5-11.9,21.9-23,28.5-33c5.9-10,9-18.4,9-26.4c0-11.9-3.5-21.5-11.1-28.9c-7-7.6-16-11.5-26.4-11.5s-19.5,3.9-26.4,11.5
			c-7,7.6-11.1,17-11.1,28.9c0,7.6,3.1,16.4,9,26.4C-1122.1,109.2-1112.6,120.2-1100.1,132.7z M-1100.1,149.7
			c-17-15-29.5-28.5-37.5-41.4c-8.4-12.5-12.5-24.4-12.5-35.5c0-16.4,4.9-28.9,15-38.9c10-9.4,21.5-14.5,35-14.5s25,4.9,35,14.5
			c10,9.6,15,22.5,15,38.9c0,11.1-3.9,22.5-12.5,35.5C-1070.6,121.3-1083.1,134.8-1100.1,149.7z"/>
	</g>
</mask>
<g mask="url(#SVGID_2_)">
	<polygon points="-1150.1,225.1 -1150.1,205.1 -1050.1,305.1 -1050.1,325.1 	"/>
	<polygon fill="#FFF200" points="-1150.1,205.9 -1150.1,185.9 -1050.1,285.9 -1050.1,305.9 	"/>
	<polygon points="-1150.1,186.6 -1150.1,166.6 -1050.1,266.6 -1050.1,286.6 	"/>
	<polygon fill="#FFF200" points="-1150.1,167.4 -1150.1,147.4 -1050.1,247.4 -1050.1,267.4 	"/>
	<polygon points="-1150.1,148.2 -1150.1,128.2 -1050.1,228.2 -1050.1,248.2 	"/>
	<polygon fill="#FFF200" points="-1150.1,129 -1150.1,109 -1050.1,209 -1050.1,229 	"/>
	<polygon points="-1150.1,109.7 -1150.1,89.7 -1050.1,189.7 -1050.1,209.7 	"/>
	<polygon fill="#FFF200" points="-1150.1,90.5 -1150.1,70.5 -1050.1,170.5 -1050.1,190.5 	"/>
	<polygon points="-1150.1,71.3 -1150.1,51.3 -1050.1,151.3 -1050.1,171.3 	"/>
	<polygon fill="#FFF200" points="-1150.1,52.1 -1150.1,32.1 -1050.1,132.1 -1050.1,152.1 	"/>
	<polygon points="-1150.1,32.9 -1150.1,12.9 -1050.1,112.9 -1050.1,132.9 	"/>
	<polygon fill="#FFF200" points="-1150.1,13.6 -1150.1,-6.4 -1050.1,93.6 -1050.1,113.6 	"/>
	<polygon points="-1150.1,-5.6 -1150.1,-25.6 -1050.1,74.4 -1050.1,94.4 	"/>
	<polygon fill="#FFF200" points="-1150.1,-24.8 -1150.1,-44.8 -1050.1,55.2 -1050.1,75.2 	"/>
	<polygon points="-1150.1,-44 -1150.1,-64 -1050.1,36 -1050.1,56 	"/>
	<polygon fill="#FFF200" points="-1150.1,-63.2 -1150.1,-83.2 -1050.1,16.8 -1050.1,36.8 	"/>
</g>
<g>
	<rect x="1703.8" y="-901" width="66.9" height="66.9"/>
	<rect x="1770.7" y="-901" fill="#FFFFFF" width="66.9" height="66.9"/>
	<rect x="1703.8" y="-834.1" fill="#FFFFFF" width="66.9" height="66.9"/>
	<rect x="1770.7" y="-834.1" width="66.9" height="66.9"/>
	<rect x="1837.6" y="-901" width="66.9" height="66.9"/>
	<rect x="1904.9" y="-901" fill="#FFFFFF" width="66.9" height="66.9"/>
	<rect x="1837.6" y="-834.1" fill="#FFFFFF" width="66.9" height="66.9"/>
	<rect x="1904.9" y="-834.1" width="66.9" height="66.9"/>
	<rect x="1703.8" y="-766.8" width="66.9" height="66.9"/>
	<rect x="1770.7" y="-766.8" fill="#FFFFFF" width="66.9" height="66.9"/>
	<rect x="1703.8" y="-699.9" fill="#FFFFFF" width="66.9" height="66.9"/>
	<rect x="1770.7" y="-699.9" width="66.9" height="66.9"/>
	<rect x="1837.6" y="-766.8" width="66.9" height="66.9"/>
	<rect x="1904.9" y="-766.8" fill="#FFFFFF" width="66.9" height="66.9"/>
	<rect x="1837.6" y="-699.9" fill="#FFFFFF" width="66.9" height="66.9"/>
	<rect x="1904.9" y="-699.9" width="66.9" height="66.9"/>
	<rect x="1703.8" y="-1169" width="66.9" height="66.9"/>
	<rect x="1770.7" y="-1169" fill="#FFFFFF" width="66.9" height="66.9"/>
	<rect x="1703.8" y="-1102.1" fill="#FFFFFF" width="66.9" height="66.9"/>
	<rect x="1770.7" y="-1102.1" width="66.9" height="66.9"/>
	<rect x="1837.6" y="-1169" width="66.9" height="66.9"/>
	<rect x="1904.9" y="-1169" fill="#FFFFFF" width="66.9" height="66.9"/>
	<rect x="1837.6" y="-1102.1" fill="#FFFFFF" width="66.9" height="66.9"/>
	<rect x="1904.9" y="-1102.1" width="66.9" height="66.9"/>
	<rect x="1703.8" y="-1034.8" width="66.9" height="66.9"/>
	<rect x="1770.7" y="-1034.8" fill="#FFFFFF" width="66.9" height="66.9"/>
	<rect x="1703.8" y="-967.9" fill="#FFFFFF" width="66.9" height="66.9"/>
	<rect x="1770.7" y="-967.9" width="66.9" height="66.9"/>
	<rect x="1837.6" y="-1034.8" width="66.9" height="66.9"/>
	<rect x="1904.9" y="-1034.8" fill="#FFFFFF" width="66.9" height="66.9"/>
	<rect x="1837.6" y="-967.9" fill="#FFFFFF" width="66.9" height="66.9"/>
	<rect x="1904.9" y="-967.9" width="66.9" height="66.9"/>
	<rect x="1971.8" y="-901" width="66.9" height="66.9"/>
	<rect x="2038.7" y="-901" fill="#FFFFFF" width="66.9" height="66.9"/>
	<rect x="1971.8" y="-834.1" fill="#FFFFFF" width="66.9" height="66.9"/>
	<rect x="2038.7" y="-834.1" width="66.9" height="66.9"/>
	<rect x="2105.5" y="-901" width="66.9" height="66.9"/>
	<rect x="2172.9" y="-901" fill="#FFFFFF" width="66.9" height="66.9"/>
	<rect x="2105.5" y="-834.1" fill="#FFFFFF" width="66.9" height="66.9"/>
	<rect x="2172.9" y="-834.1" width="66.9" height="66.9"/>
	<rect x="1971.8" y="-766.8" width="66.9" height="66.9"/>
	<rect x="2038.7" y="-766.8" fill="#FFFFFF" width="66.9" height="66.9"/>
	<rect x="1971.8" y="-699.9" fill="#FFFFFF" width="66.9" height="66.9"/>
	<rect x="2038.7" y="-699.9" width="66.9" height="66.9"/>
	<rect x="2105.5" y="-766.8" width="66.9" height="66.9"/>
	<rect x="2172.9" y="-766.8" fill="#FFFFFF" width="66.9" height="66.9"/>
	<rect x="2105.5" y="-699.9" fill="#FFFFFF" width="66.9" height="66.9"/>
	<rect x="2172.9" y="-699.9" width="66.9" height="66.9"/>
	<rect x="1971.8" y="-1169" width="66.9" height="66.9"/>
	<rect x="2038.7" y="-1169" fill="#FFFFFF" width="66.9" height="66.9"/>
	<rect x="1971.8" y="-1102.1" fill="#FFFFFF" width="66.9" height="66.9"/>
	<rect x="2038.7" y="-1102.1" width="66.9" height="66.9"/>
	<rect x="2105.5" y="-1169" width="66.9" height="66.9"/>
	<rect x="2172.9" y="-1169" fill="#FFFFFF" width="66.9" height="66.9"/>
	<rect x="2105.5" y="-1102.1" fill="#FFFFFF" width="66.9" height="66.9"/>
	<rect x="2172.9" y="-1102.1" width="66.9" height="66.9"/>
	<rect x="1971.8" y="-1034.8" width="66.9" height="66.9"/>
	<rect x="2038.7" y="-1034.8" fill="#FFFFFF" width="66.9" height="66.9"/>
	<rect x="1971.8" y="-967.9" fill="#FFFFFF" width="66.9" height="66.9"/>
	<rect x="2038.7" y="-967.9" width="66.9" height="66.9"/>
	<rect x="2105.5" y="-1034.8" width="66.9" height="66.9"/>
	<rect x="2172.9" y="-1034.8" fill="#FFFFFF" width="66.9" height="66.9"/>
	<rect x="2105.5" y="-967.9" fill="#FFFFFF" width="66.9" height="66.9"/>
	<rect x="2172.9" y="-967.9" width="66.9" height="66.9"/>
	<rect x="2239.8" y="-901" width="66.9" height="66.9"/>
	<rect x="2306.6" y="-901" fill="#FFFFFF" width="66.9" height="66.9"/>
	<rect x="2239.8" y="-834.1" fill="#FFFFFF" width="66.9" height="66.9"/>
	<rect x="2306.6" y="-834.1" width="66.9" height="66.9"/>
	<rect x="2373.5" y="-901" width="66.9" height="66.9"/>
	<rect x="2440.9" y="-901" fill="#FFFFFF" width="66.9" height="66.9"/>
	<rect x="2373.5" y="-834.1" fill="#FFFFFF" width="66.9" height="66.9"/>
	<rect x="2440.9" y="-834.1" width="66.9" height="66.9"/>
	<rect x="2239.8" y="-766.8" width="66.9" height="66.9"/>
	<rect x="2306.6" y="-766.8" fill="#FFFFFF" width="66.9" height="66.9"/>
	<rect x="2239.8" y="-699.9" fill="#FFFFFF" width="66.9" height="66.9"/>
	<rect x="2306.6" y="-699.9" width="66.9" height="66.9"/>
	<rect x="2373.5" y="-766.8" width="66.9" height="66.9"/>
	<rect x="2440.9" y="-766.8" fill="#FFFFFF" width="66.9" height="66.9"/>
	<rect x="2373.5" y="-699.9" fill="#FFFFFF" width="66.9" height="66.9"/>
	<rect x="2440.9" y="-699.9" width="66.9" height="66.9"/>
	<rect x="2239.8" y="-1169" width="66.9" height="66.9"/>
	<rect x="2306.6" y="-1169" fill="#FFFFFF" width="66.9" height="66.9"/>
	<rect x="2239.8" y="-1102.1" fill="#FFFFFF" width="66.9" height="66.9"/>
	<rect x="2306.6" y="-1102.1" width="66.9" height="66.9"/>
	<rect x="2373.5" y="-1169" width="66.9" height="66.9"/>
	<rect x="2440.9" y="-1169" fill="#FFFFFF" width="66.9" height="66.9"/>
	<rect x="2373.5" y="-1102.1" fill="#FFFFFF" width="66.9" height="66.9"/>
	<rect x="2440.9" y="-1102.1" width="66.9" height="66.9"/>
	<rect x="2239.8" y="-1034.8" width="66.9" height="66.9"/>
	<rect x="2306.6" y="-1034.8" fill="#FFFFFF" width="66.9" height="66.9"/>
	<rect x="2239.8" y="-967.9" fill="#FFFFFF" width="66.9" height="66.9"/>
	<rect x="2306.6" y="-967.9" width="66.9" height="66.9"/>
	<rect x="2373.5" y="-1034.8" width="66.9" height="66.9"/>
	<rect x="2440.9" y="-1034.8" fill="#FFFFFF" width="66.9" height="66.9"/>
	<rect x="2373.5" y="-967.9" fill="#FFFFFF" width="66.9" height="66.9"/>
	<rect x="2440.9" y="-967.9" width="66.9" height="66.9"/>
	<rect x="2507.7" y="-901" width="66.9" height="66.9"/>
	<rect x="2574.6" y="-901" fill="#FFFFFF" width="66.9" height="66.9"/>
	<rect x="2507.7" y="-834.1" fill="#FFFFFF" width="66.9" height="66.9"/>
	<rect x="2574.6" y="-834.1" width="66.9" height="66.9"/>
	<rect x="2641.5" y="-901" width="66.9" height="66.9"/>
	<rect x="2708.8" y="-901" fill="#FFFFFF" width="66.9" height="66.9"/>
	<rect x="2641.5" y="-834.1" fill="#FFFFFF" width="66.9" height="66.9"/>
	<rect x="2708.8" y="-834.1" width="66.9" height="66.9"/>
	<rect x="2507.7" y="-766.8" width="66.9" height="66.9"/>
	<rect x="2574.6" y="-766.8" fill="#FFFFFF" width="66.9" height="66.9"/>
	<rect x="2507.7" y="-699.9" fill="#FFFFFF" width="66.9" height="66.9"/>
	<rect x="2574.6" y="-699.9" width="66.9" height="66.9"/>
	<rect x="2641.5" y="-766.8" width="66.9" height="66.9"/>
	<rect x="2708.8" y="-766.8" fill="#FFFFFF" width="66.9" height="66.9"/>
	<rect x="2641.5" y="-699.9" fill="#FFFFFF" width="66.9" height="66.9"/>
	<rect x="2708.8" y="-699.9" width="66.9" height="66.9"/>
	<rect x="2507.7" y="-1169" width="66.9" height="66.9"/>
	<rect x="2574.6" y="-1169" fill="#FFFFFF" width="66.9" height="66.9"/>
	<rect x="2507.7" y="-1102.1" fill="#FFFFFF" width="66.9" height="66.9"/>
	<rect x="2574.6" y="-1102.1" width="66.9" height="66.9"/>
	<rect x="2641.5" y="-1169" width="66.9" height="66.9"/>
	<rect x="2708.8" y="-1169" fill="#FFFFFF" width="66.9" height="66.9"/>
	<rect x="2641.5" y="-1102.1" fill="#FFFFFF" width="66.9" height="66.9"/>
	<rect x="2708.8" y="-1102.1" width="66.9" height="66.9"/>
	<rect x="2507.7" y="-1034.8" width="66.9" height="66.9"/>
	<rect x="2574.6" y="-1034.8" fill="#FFFFFF" width="66.9" height="66.9"/>
	<rect x="2507.7" y="-967.9" fill="#FFFFFF" width="66.9" height="66.9"/>
	<rect x="2574.6" y="-967.9" width="66.9" height="66.9"/>
	<rect x="2641.5" y="-1034.8" width="66.9" height="66.9"/>
	<rect x="2708.8" y="-1034.8" fill="#FFFFFF" width="66.9" height="66.9"/>
	<rect x="2641.5" y="-967.9" fill="#FFFFFF" width="66.9" height="66.9"/>
	<rect x="2708.8" y="-967.9" width="66.9" height="66.9"/>
	<rect x="1703.8" y="-365" width="66.9" height="66.9"/>
	<rect x="1770.7" y="-365" fill="#FFFFFF" width="66.9" height="66.9"/>
	<rect x="1703.8" y="-298.1" fill="#FFFFFF" width="66.9" height="66.9"/>
	<rect x="1770.7" y="-298.1" width="66.9" height="66.9"/>
	<rect x="1837.6" y="-365" width="66.9" height="66.9"/>
	<rect x="1904.9" y="-365" fill="#FFFFFF" width="66.9" height="66.9"/>
	<rect x="1837.6" y="-298.1" fill="#FFFFFF" width="66.9" height="66.9"/>
	<rect x="1904.9" y="-298.1" width="66.9" height="66.9"/>
	<rect x="1703.8" y="-230.8" width="66.9" height="66.9"/>
	<rect x="1770.7" y="-230.8" fill="#FFFFFF" width="66.9" height="66.9"/>
	<rect x="1703.8" y="-163.9" fill="#FFFFFF" width="66.9" height="66.9"/>
	<rect x="1770.7" y="-163.9" width="66.9" height="66.9"/>
	<rect x="1837.6" y="-230.8" width="66.9" height="66.9"/>
	<rect x="1904.9" y="-230.8" fill="#FFFFFF" width="66.9" height="66.9"/>
	<rect x="1837.6" y="-163.9" fill="#FFFFFF" width="66.9" height="66.9"/>
	<rect x="1904.9" y="-163.9" width="66.9" height="66.9"/>
	<rect x="1703.8" y="-633" width="66.9" height="66.9"/>
	<rect x="1770.7" y="-633" fill="#FFFFFF" width="66.9" height="66.9"/>
	<rect x="1703.8" y="-566.1" fill="#FFFFFF" width="66.9" height="66.9"/>
	<rect x="1770.7" y="-566.1" width="66.9" height="66.9"/>
	<rect x="1837.6" y="-633" width="66.9" height="66.9"/>
	<rect x="1904.9" y="-633" fill="#FFFFFF" width="66.9" height="66.9"/>
	<rect x="1837.6" y="-566.1" fill="#FFFFFF" width="66.9" height="66.9"/>
	<rect x="1904.9" y="-566.1" width="66.9" height="66.9"/>
	<rect x="1703.8" y="-498.8" width="66.9" height="66.9"/>
	<rect x="1770.7" y="-498.8" fill="#FFFFFF" width="66.9" height="66.9"/>
	<rect x="1703.8" y="-431.9" fill="#FFFFFF" width="66.9" height="66.9"/>
	<rect x="1770.7" y="-431.9" width="66.9" height="66.9"/>
	<rect x="1837.6" y="-498.8" width="66.9" height="66.9"/>
	<rect x="1904.9" y="-498.8" fill="#FFFFFF" width="66.9" height="66.9"/>
	<rect x="1837.6" y="-431.9" fill="#FFFFFF" width="66.9" height="66.9"/>
	<rect x="1904.9" y="-431.9" width="66.9" height="66.9"/>
	<rect x="1971.8" y="-365" width="66.9" height="66.9"/>
	<rect x="2038.7" y="-365" fill="#FFFFFF" width="66.9" height="66.9"/>
	<rect x="1971.8" y="-298.1" fill="#FFFFFF" width="66.9" height="66.9"/>
	<rect x="2038.7" y="-298.1" width="66.9" height="66.9"/>
	<rect x="2105.5" y="-365" width="66.9" height="66.9"/>
	<rect x="2172.9" y="-365" fill="#FFFFFF" width="66.9" height="66.9"/>
	<rect x="2105.5" y="-298.1" fill="#FFFFFF" width="66.9" height="66.9"/>
	<rect x="2172.9" y="-298.1" width="66.9" height="66.9"/>
	<rect x="1971.8" y="-230.8" width="66.9" height="66.9"/>
	<rect x="2038.7" y="-230.8" fill="#FFFFFF" width="66.9" height="66.9"/>
	<rect x="1971.8" y="-163.9" fill="#FFFFFF" width="66.9" height="66.9"/>
	<rect x="2038.7" y="-163.9" width="66.9" height="66.9"/>
	<rect x="2105.5" y="-230.8" width="66.9" height="66.9"/>
	<rect x="2172.9" y="-230.8" fill="#FFFFFF" width="66.9" height="66.9"/>
	<rect x="2105.5" y="-163.9" fill="#FFFFFF" width="66.9" height="66.9"/>
	<rect x="2172.9" y="-163.9" width="66.9" height="66.9"/>
	<rect x="1971.8" y="-633" width="66.9" height="66.9"/>
	<rect x="2038.7" y="-633" fill="#FFFFFF" width="66.9" height="66.9"/>
	<rect x="1971.8" y="-566.1" fill="#FFFFFF" width="66.9" height="66.9"/>
	<rect x="2038.7" y="-566.1" width="66.9" height="66.9"/>
	<rect x="2105.5" y="-633" width="66.9" height="66.9"/>
	<rect x="2172.9" y="-633" fill="#FFFFFF" width="66.9" height="66.9"/>
	<rect x="2105.5" y="-566.1" fill="#FFFFFF" width="66.9" height="66.9"/>
	<rect x="2172.9" y="-566.1" width="66.9" height="66.9"/>
	<rect x="1971.8" y="-498.8" width="66.9" height="66.9"/>
	<rect x="2038.7" y="-498.8" fill="#FFFFFF" width="66.9" height="66.9"/>
	<rect x="1971.8" y="-431.9" fill="#FFFFFF" width="66.9" height="66.9"/>
	<rect x="2038.7" y="-431.9" width="66.9" height="66.9"/>
	<rect x="2105.5" y="-498.8" width="66.9" height="66.9"/>
	<rect x="2172.9" y="-498.8" fill="#FFFFFF" width="66.9" height="66.9"/>
	<rect x="2105.5" y="-431.9" fill="#FFFFFF" width="66.9" height="66.9"/>
	<rect x="2172.9" y="-431.9" width="66.9" height="66.9"/>
	<rect x="2239.8" y="-365" width="66.9" height="66.9"/>
	<rect x="2306.6" y="-365" fill="#FFFFFF" width="66.9" height="66.9"/>
	<rect x="2239.8" y="-298.1" fill="#FFFFFF" width="66.9" height="66.9"/>
	<rect x="2306.6" y="-298.1" width="66.9" height="66.9"/>
	<rect x="2373.5" y="-365" width="66.9" height="66.9"/>
	<rect x="2440.9" y="-365" fill="#FFFFFF" width="66.9" height="66.9"/>
	<rect x="2373.5" y="-298.1" fill="#FFFFFF" width="66.9" height="66.9"/>
	<rect x="2440.9" y="-298.1" width="66.9" height="66.9"/>
	<rect x="2239.8" y="-230.8" width="66.9" height="66.9"/>
	<rect x="2306.6" y="-230.8" fill="#FFFFFF" width="66.9" height="66.9"/>
	<rect x="2239.8" y="-163.9" fill="#FFFFFF" width="66.9" height="66.9"/>
	<rect x="2306.6" y="-163.9" width="66.9" height="66.9"/>
	<rect x="2373.5" y="-230.8" width="66.9" height="66.9"/>
	<rect x="2440.9" y="-230.8" fill="#FFFFFF" width="66.9" height="66.9"/>
	<rect x="2373.5" y="-163.9" fill="#FFFFFF" width="66.9" height="66.9"/>
	<rect x="2440.9" y="-163.9" width="66.9" height="66.9"/>
	<rect x="2239.8" y="-633" width="66.9" height="66.9"/>
	<rect x="2306.6" y="-633" fill="#FFFFFF" width="66.9" height="66.9"/>
	<rect x="2239.8" y="-566.1" fill="#FFFFFF" width="66.9" height="66.9"/>
	<rect x="2306.6" y="-566.1" width="66.9" height="66.9"/>
	<rect x="2373.5" y="-633" width="66.9" height="66.9"/>
	<rect x="2440.9" y="-633" fill="#FFFFFF" width="66.9" height="66.9"/>
	<rect x="2373.5" y="-566.1" fill="#FFFFFF" width="66.9" height="66.9"/>
	<rect x="2440.9" y="-566.1" width="66.9" height="66.9"/>
	<rect x="2239.8" y="-498.8" width="66.9" height="66.9"/>
	<rect x="2306.6" y="-498.8" fill="#FFFFFF" width="66.9" height="66.9"/>
	<rect x="2239.8" y="-431.9" fill="#FFFFFF" width="66.9" height="66.9"/>
	<rect x="2306.6" y="-431.9" width="66.9" height="66.9"/>
	<rect x="2373.5" y="-498.8" width="66.9" height="66.9"/>
	<rect x="2440.9" y="-498.8" fill="#FFFFFF" width="66.9" height="66.9"/>
	<rect x="2373.5" y="-431.9" fill="#FFFFFF" width="66.9" height="66.9"/>
	<rect x="2440.9" y="-431.9" width="66.9" height="66.9"/>
	<rect x="2507.7" y="-365" width="66.9" height="66.9"/>
	<rect x="2574.6" y="-365" fill="#FFFFFF" width="66.9" height="66.9"/>
	<rect x="2507.7" y="-298.1" fill="#FFFFFF" width="66.9" height="66.9"/>
	<rect x="2574.6" y="-298.1" width="66.9" height="66.9"/>
	<rect x="2641.5" y="-365" width="66.9" height="66.9"/>
	<rect x="2708.8" y="-365" fill="#FFFFFF" width="66.9" height="66.9"/>
	<rect x="2641.5" y="-298.1" fill="#FFFFFF" width="66.9" height="66.9"/>
	<rect x="2708.8" y="-298.1" width="66.9" height="66.9"/>
	<rect x="2507.7" y="-230.8" width="66.9" height="66.9"/>
	<rect x="2574.6" y="-230.8" fill="#FFFFFF" width="66.9" height="66.9"/>
	<rect x="2507.7" y="-163.9" fill="#FFFFFF" width="66.9" height="66.9"/>
	<rect x="2574.6" y="-163.9" width="66.9" height="66.9"/>
	<rect x="2641.5" y="-230.8" width="66.9" height="66.9"/>
	<rect x="2708.8" y="-230.8" fill="#FFFFFF" width="66.9" height="66.9"/>
	<rect x="2641.5" y="-163.9" fill="#FFFFFF" width="66.9" height="66.9"/>
	<rect x="2708.8" y="-163.9" width="66.9" height="66.9"/>
	<rect x="2507.7" y="-633" width="66.9" height="66.9"/>
	<rect x="2574.6" y="-633" fill="#FFFFFF" width="66.9" height="66.9"/>
	<rect x="2507.7" y="-566.1" fill="#FFFFFF" width="66.9" height="66.9"/>
	<rect x="2574.6" y="-566.1" width="66.9" height="66.9"/>
	<rect x="2641.5" y="-633" width="66.9" height="66.9"/>
	<rect x="2708.8" y="-633" fill="#FFFFFF" width="66.9" height="66.9"/>
	<rect x="2641.5" y="-566.1" fill="#FFFFFF" width="66.9" height="66.9"/>
	<rect x="2708.8" y="-566.1" width="66.9" height="66.9"/>
	<rect x="2507.7" y="-498.8" width="66.9" height="66.9"/>
	<rect x="2574.6" y="-498.8" fill="#FFFFFF" width="66.9" height="66.9"/>
	<rect x="2507.7" y="-431.9" fill="#FFFFFF" width="66.9" height="66.9"/>
	<rect x="2574.6" y="-431.9" width="66.9" height="66.9"/>
	<rect x="2641.5" y="-498.8" width="66.9" height="66.9"/>
	<rect x="2708.8" y="-498.8" fill="#FFFFFF" width="66.9" height="66.9"/>
	<rect x="2641.5" y="-431.9" fill="#FFFFFF" width="66.9" height="66.9"/>
	<rect x="2708.8" y="-431.9" width="66.9" height="66.9"/>
</g>
<g>
	<path d="M3793.6-2660.5c-102.1-90.4-178.4-174.5-228.8-252c-50.4-77.5-75.8-149.1-75.8-215.2c0-98.9,30.7-177.9,91.9-236.6
		c61.2-58.7,132.1-88.2,212.7-88.2c80.7,0,151.6,29.5,212.7,88.2s91.9,137.7,91.9,236.6c0,66-25.3,137.7-75.8,215.4
		C3972-2834.5,3895.7-2750.9,3793.6-2660.5z"/>
	<defs>
		<filter id="Adobe_OpacityMaskFilter_1_" filterUnits="userSpaceOnUse" x="3565.3" y="-3370.1" width="456.6" height="607.7">
			<feColorMatrix  type="matrix" values="1 0 0 0 0  0 1 0 0 0  0 0 1 0 0  0 0 0 1 0"/>
		</filter>
	</defs>
	<mask maskUnits="userSpaceOnUse" x="3565.3" y="-3370.1" width="456.6" height="607.7" id="SVGID_1_">
		<g filter="url(#Adobe_OpacityMaskFilter_1_)">
			<g>
				<rect x="3564.6" y="-3108.2" fill="#FFFFFF" width="65.1" height="65.1"/>
				<rect x="3564.6" y="-3043.1" width="65.1" height="65.1"/>
				<rect x="3629.8" y="-3108.2" width="65.1" height="65.1"/>
				<rect x="3695.3" y="-3108.2" fill="#FFFFFF" width="65.1" height="65.1"/>
				<rect x="3629.8" y="-3043.1" fill="#FFFFFF" width="65.1" height="65.1"/>
				<rect x="3695.3" y="-3043.1" width="65.1" height="65.1"/>
				<rect x="3564.6" y="-2977.6" fill="#FFFFFF" width="65.1" height="65.1"/>
				<rect x="3629.8" y="-2977.6" width="65.1" height="65.1"/>
				<rect x="3695.3" y="-2977.6" fill="#FFFFFF" width="65.1" height="65.1"/>
				<rect x="3629.8" y="-2912.4" fill="#FFFFFF" width="65.1" height="65.1"/>
				<rect x="3695.3" y="-2912.4" width="65.1" height="65.1"/>
				<rect x="3564.6" y="-3304" width="65.1" height="65.1"/>
				<rect x="3629.8" y="-3369.1" width="65.1" height="65.1"/>
				<rect x="3695.3" y="-3369.1" fill="#FFFFFF" width="65.1" height="65.1"/>
				<rect x="3630.2" y="-3304" fill="#FFFFFF" width="65.1" height="65.1"/>
				<rect x="3695.3" y="-3304" width="65.1" height="65.1"/>
				<rect x="3564.6" y="-3238.5" fill="#FFFFFF" width="65.1" height="65.1"/>
				<rect x="3564.6" y="-3173.3" width="65.1" height="65.1"/>
				<rect x="3629.8" y="-3238.5" width="65.1" height="65.1"/>
				<rect x="3695.3" y="-3238.5" fill="#FFFFFF" width="65.1" height="65.1"/>
				<rect x="3629.8" y="-3173.3" fill="#FFFFFF" width="65.1" height="65.1"/>
				<rect x="3695.3" y="-3173.3" width="65.1" height="65.1"/>
				<rect x="3760.4" y="-3108.2" width="65.1" height="65.1"/>
				<rect x="3825.5" y="-3108.2" fill="#FFFFFF" width="65.1" height="65.1"/>
				<rect x="3760.4" y="-3043.1" fill="#FFFFFF" width="65.1" height="65.1"/>
				<rect x="3825.5" y="-3043.1" width="65.1" height="65.1"/>
				<rect x="3890.7" y="-3108.2" width="65.1" height="65.1"/>
				<rect x="3956.2" y="-3108.2" fill="#FFFFFF" width="65.1" height="65.1"/>
				<rect x="3890.7" y="-3043.1" fill="#FFFFFF" width="65.1" height="65.1"/>
				<rect x="3956.2" y="-3043.1" width="65.1" height="65.1"/>
				<rect x="3760.4" y="-2977.6" width="65.1" height="65.1"/>
				<rect x="3825.5" y="-2977.6" fill="#FFFFFF" width="65.1" height="65.1"/>
				<rect x="3760.4" y="-2912.4" fill="#FFFFFF" width="65.1" height="65.1"/>
				<rect x="3825.5" y="-2912.4" width="65.1" height="65.1"/>
				<rect x="3890.7" y="-2977.6" width="65.1" height="65.1"/>
				<rect x="3956.2" y="-2977.6" fill="#FFFFFF" width="65.1" height="65.1"/>
				<rect x="3890.7" y="-2912.4" fill="#FFFFFF" width="65.1" height="65.1"/>
				<rect x="3760.4" y="-3369.1" width="65.1" height="65.1"/>
				<rect x="3825.5" y="-3369.1" fill="#FFFFFF" width="65.1" height="65.1"/>
				<rect x="3760.4" y="-3304" fill="#FFFFFF" width="65.1" height="65.1"/>
				<rect x="3825.5" y="-3304" width="65.1" height="65.1"/>
				<rect x="3890.7" y="-3369.1" width="65.1" height="65.1"/>
				<rect x="3890.7" y="-3304" fill="#FFFFFF" width="65.1" height="65.1"/>
				<rect x="3956.2" y="-3304" width="65.1" height="65.1"/>
				<rect x="3760.4" y="-3238.5" width="65.1" height="65.1"/>
				<rect x="3825.5" y="-3238.5" fill="#FFFFFF" width="65.1" height="65.1"/>
				<rect x="3760.4" y="-3173.3" fill="#FFFFFF" width="65.1" height="65.1"/>
				<rect x="3825.5" y="-3173.3" width="65.1" height="65.1"/>
				<rect x="3890.7" y="-3238.5" width="65.1" height="65.1"/>
				<rect x="3956.2" y="-3238.5" fill="#FFFFFF" width="65.1" height="65.1"/>
				<rect x="3890.7" y="-3173.3" fill="#FFFFFF" width="65.1" height="65.1"/>
				<rect x="3956.2" y="-3173.3" width="65.1" height="65.1"/>
				<rect x="3695.3" y="-2847.3" fill="#FFFFFF" width="65.1" height="65.1"/>
				<rect x="3760.4" y="-2847.3" width="65.1" height="65.1"/>
				<rect x="3825.5" y="-2847.3" fill="#FFFFFF" width="65.1" height="65.1"/>
				<rect x="3760.4" y="-2782.2" fill="#FFFFFF" width="65.1" height="65.1"/>
			</g>
		</g>
	</mask>
	<g mask="url(#SVGID_1_)">
		<path fill="#FFFFFF" d="M3793.6-2762.4c77.5-73.8,134.8-141.1,172.3-201.5s56-114,56-160.8c0-71.9-21.9-130.9-66-176.7
			s-98.2-68.7-162.3-68.7s-118.2,22.9-162.3,68.7s-66,104.8-66,176.7c0,46.8,18.8,100.4,56,160.8
			C3658.6-2903.5,3716.1-2836.5,3793.6-2762.4z"/>
	</g>
	<path d="M3793.6-3093.8c21,0,39-7.8,53.9-23.2s22.4-34.1,22.4-56s-7.6-40.5-22.4-56c-14.9-15.6-32.9-23.2-53.9-23.2
		s-39,7.8-53.9,23.2c-14.9,15.6-22.4,34.1-22.4,56s7.6,40.5,22.4,56C3754.6-3101.6,3772.6-3093.8,3793.6-3093.8z"/>
</g>
<path fill="#FFFF00" d="M-869.5,110.7c-8.3-7.3-14.4-13.9-18.3-20.2c-4.1-6.1-6.1-11.9-6.1-17.3c0-8,2.4-14.1,7.3-19
	c4.9-4.6,10.5-7.1,17.1-7.1c6.3,0,12.2,2.4,17.1,7.1c4.9,4.6,7.3,11,7.3,19c0,5.4-1.9,11-6.1,17.3
	C-855.1,96.6-861.2,103.4-869.5,110.7z"/>
<path d="M-856,89.9l-10.3-10.3l4-4l10.3,10.3L-856,89.9z M-882,89.9l-4-4l13-13l-3.2-3.2l-1.3,1.3l-2.4-2.4v3.9l-1.3,1.3l-5.7-5.7
	l1.3-1.3h3.9l-2.4-2.4l6.7-6.7c0.6-0.6,1.3-1.1,2-1.4c0.7-0.3,1.5-0.4,2.2-0.4s1.5,0.1,2.2,0.4c0.7,0.3,1.4,0.7,2,1.4l-4.3,4.3
	l2.4,2.4l-1.3,1.3l3.2,3.2l4.2-4.2c-0.1-0.3-0.2-0.7-0.3-1.1c-0.1-0.4-0.1-0.8-0.1-1.1c0-1.9,0.6-3.4,1.9-4.7s2.8-1.9,4.7-1.9
	c0.5,0,0.9,0,1.3,0.1c0.4,0.1,0.9,0.2,1.3,0.4l-4.7,4.7l3.4,3.4l4.7-4.7c0.2,0.4,0.4,0.9,0.4,1.3c0.1,0.4,0.1,0.9,0.1,1.3
	c0,1.9-0.6,3.4-1.9,4.7c-1.3,1.3-2.8,1.9-4.7,1.9c-0.4,0-0.8,0-1.1-0.1c-0.4-0.1-0.7-0.2-1.1-0.3L-882,89.9z"/>
<path fill="#00EA00" d="M-801.7,658.1c1.7,0,3.2-0.7,4.4-1.9s1.7-2.7,1.7-4.4s-0.5-3.2-1.7-4.4s-2.7-1.9-4.4-1.9s-3.2,0.7-4.4,1.9
	s-1.7,2.7-1.7,4.4s0.5,3.2,1.7,4.4S-803.4,658.1-801.7,658.1z M-801.7,681.3c6.1-5.8,10.7-11.2,13.9-16.1c2.9-4.9,4.4-9,4.4-12.9
	c0-5.8-1.7-10.5-5.4-14.1c-3.4-3.7-7.8-5.6-12.9-5.6c-5.1,0-9.5,1.9-12.9,5.6s-5.4,8.3-5.4,14.1c0,3.7,1.5,8,4.4,12.9
	C-812.5,670-807.8,675.4-801.7,681.3z M-801.7,689.8c-8.3-7.3-14.4-13.9-18.3-20.2c-4.1-6.1-6.1-11.9-6.1-17.3c0-8,2.4-14.1,7.3-19
	c4.9-4.6,10.5-7.1,17.1-7.1c6.3,0,12.2,2.4,17.1,7.1s7.3,11,7.3,19c0,5.4-1.9,11-6.1,17.3C-787.4,675.6-793.4,682.5-801.7,689.8z"/>
<path fill="#FF0000" d="M-865.1,657.4c1.7,0,3.2-0.7,4.4-1.9s1.7-2.7,1.7-4.4s-0.5-3.2-1.7-4.4s-2.7-1.9-4.4-1.9s-3.2,0.7-4.4,1.9
	s-1.7,2.7-1.7,4.4s0.5,3.2,1.7,4.4C-868.3,656.6-866.8,657.4-865.1,657.4z M-865.1,680.5c6.1-5.8,10.7-11.2,13.9-16.1
	c2.9-4.9,4.4-9,4.4-12.9c0-5.8-1.7-10.5-5.4-14.1c-3.4-3.7-7.8-5.6-12.9-5.6c-5.1,0-9.5,1.9-12.9,5.6s-5.4,8.3-5.4,14.1
	c0,3.7,1.5,8,4.4,12.9C-875.8,669.3-871.2,674.7-865.1,680.5z M-865.1,689c-8.3-7.3-14.4-13.9-18.3-20.2c-4.1-6.1-6.1-11.9-6.1-17.3
	c0-8,2.4-14.1,7.3-19c4.9-4.6,10.5-7.1,17.1-7.1c6.3,0,12.2,2.4,17.1,7.1c4.9,4.6,7.3,11,7.3,19c0,5.4-1.9,11-6.1,17.3
	C-850.7,674.9-856.8,681.7-865.1,689z"/>
<path fill="#00EA00" d="M-809,564.6c1.7,0,3.2-0.7,4.4-1.9s1.7-2.7,1.7-4.4s-0.5-3.2-1.7-4.4s-2.7-1.9-4.4-1.9s-3.2,0.7-4.4,1.9
	s-1.7,2.7-1.7,4.4s0.5,3.2,1.7,4.4S-810.7,564.6-809,564.6z M-809,587.8c6.1-5.8,10.7-11.2,13.9-16.1c2.9-4.9,4.4-9,4.4-12.9
	c0-5.8-1.7-10.5-5.4-14.1c-3.4-3.7-7.8-5.6-12.9-5.6c-5.1,0-9.5,1.9-12.9,5.6s-5.4,8.3-5.4,14.1c0,3.7,1.5,8,4.4,12.9
	C-819.8,576.5-815.1,581.9-809,587.8z M-809,596.3c-8.3-7.3-14.4-13.9-18.3-20.2c-4.1-6.1-6.1-11.9-6.1-17.3c0-8,2.4-14.1,7.3-19
	c4.9-4.6,10.5-7.1,17.1-7.1c6.3,0,12.2,2.4,17.1,7.1s7.3,11,7.3,19c0,5.4-1.9,11-6.1,17.3C-794.7,582.1-800.7,589-809,596.3z"/>
<path fill="#FF0000" d="M-872.4,563.9c1.7,0,3.2-0.7,4.4-1.9s1.7-2.7,1.7-4.4s-0.5-3.2-1.7-4.4s-2.7-1.9-4.4-1.9s-3.2,0.7-4.4,1.9
	s-1.7,2.7-1.7,4.4s0.5,3.2,1.7,4.4C-875.6,563.1-874.1,563.9-872.4,563.9z M-872.4,587c6.1-5.8,10.7-11.2,13.9-16.1
	c2.9-4.9,4.4-9,4.4-12.9c0-5.8-1.7-10.5-5.4-14.1c-3.4-3.7-7.8-5.6-12.9-5.6c-5.1,0-9.5,1.9-12.9,5.6s-5.4,8.3-5.4,14.1
	c0,3.7,1.5,8,4.4,12.9C-883.1,575.8-878.5,581.2-872.4,587z M-872.4,595.5c-8.3-7.3-14.4-13.9-18.3-20.2c-4.1-6.1-6.1-11.9-6.1-17.3
	c0-8,2.4-14.1,7.3-19c4.9-4.6,10.5-7.1,17.1-7.1c6.3,0,12.2,2.4,17.1,7.1c4.9,4.6,7.3,11,7.3,19c0,5.4-1.9,11-6.1,17.3
	C-858,581.4-864.1,588.2-872.4,595.5z"/>
<path fill="#00EA00" d="M-728,257.2c1.7,0,3.2-0.7,4.4-1.9s1.7-2.7,1.7-4.4s-0.5-3.2-1.7-4.4s-2.7-1.9-4.4-1.9s-3.2,0.7-4.4,1.9
	s-1.7,2.7-1.7,4.4s0.5,3.2,1.7,4.4S-729.7,257.2-728,257.2z"/>
<path fill="#FF0000" d="M-872.4,465.3c1.7,0,3.2-0.7,4.4-1.9s1.7-2.7,1.7-4.4s-0.5-3.2-1.7-4.4s-2.7-1.9-4.4-1.9s-3.2,0.7-4.4,1.9
	s-1.7,2.7-1.7,4.4s0.5,3.2,1.7,4.4C-875.6,464.5-874.1,465.3-872.4,465.3z M-872.4,488.4c6.1-5.8,10.7-11.2,13.9-16.1
	c2.9-4.9,4.4-9,4.4-12.9c0-5.8-1.7-10.5-5.4-14.1c-3.4-3.7-7.8-5.6-12.9-5.6c-5.1,0-9.5,1.9-12.9,5.6s-5.4,8.3-5.4,14.1
	c0,3.7,1.5,8,4.4,12.9C-883.1,477.2-878.5,482.6-872.4,488.4z M-872.4,496.9c-8.3-7.3-14.4-13.9-18.3-20.2
	c-4.1-6.1-6.1-11.9-6.1-17.3c0-8,2.4-14.1,7.3-19c4.9-4.6,10.5-7.1,17.1-7.1c6.3,0,12.2,2.4,17.1,7.1c4.9,4.6,7.3,11,7.3,19
	c0,5.4-1.9,11-6.1,17.3C-858,482.8-864.1,489.6-872.4,496.9z"/>
<path fill="#FFFF00" d="M-764.8,280.6c6.1-5.8,10.7-11.2,13.9-16.1c2.9-4.9,4.4-9,4.4-12.9c0-5.8-1.7-10.5-5.4-14.1
	c-3.4-3.7-7.8-5.6-12.9-5.6c-5.1,0-9.5,1.9-12.9,5.6s-5.4,8.3-5.4,14.1c0,3.7,1.5,8,4.4,12.9C-775.6,269.3-770.9,274.7-764.8,280.6z
	"/>
<path d="M-771.4,252.6h13.3v-2.6h-13.3V252.6z M-764.8,264.5c-1.8,0-3.6-0.3-5.2-1c-1.6-0.7-3-1.6-4.2-2.8s-2.1-2.6-2.8-4.2
	c-0.7-1.6-1-3.3-1-5.2s0.3-3.6,1-5.2c0.7-1.6,1.6-3,2.8-4.2s2.6-2.1,4.2-2.8c1.6-0.7,3.3-1,5.2-1c1.8,0,3.6,0.3,5.2,1
	c1.6,0.7,3,1.6,4.2,2.8s2.1,2.6,2.8,4.2c0.7,1.6,1,3.3,1,5.2s-0.3,3.6-1,5.2c-0.7,1.6-1.6,3-2.8,4.2s-2.6,2.1-4.2,2.8
	C-761.2,264.1-762.9,264.5-764.8,264.5z M-764.8,261.8c3,0,5.5-1,7.5-3.1c2.1-2.1,3.1-4.6,3.1-7.5s-1-5.5-3.1-7.5
	c-2.1-2.1-4.6-3.1-7.5-3.1s-5.5,1-7.5,3.1c-2.1,2.1-3.1,4.6-3.1,7.5s1,5.5,3.1,7.5C-770.2,260.8-767.7,261.8-764.8,261.8z"/>
<path d="M-841,315.1c-1.4,0-2.7-0.3-3.9-0.8c-1.2-0.5-2.3-1.2-3.2-2.1c-0.9-0.9-1.6-2-2.1-3.2c-0.5-1.2-0.8-2.5-0.8-3.9
	s0.3-2.7,0.8-3.9c0.5-1.2,1.2-2.3,2.1-3.2c0.9-0.9,2-1.6,3.2-2.1c1.2-0.5,2.5-0.8,3.9-0.8c1.4,0,2.7,0.3,3.9,0.8s2.3,1.2,3.2,2.1
	c0.9,0.9,1.6,2,2.1,3.2c0.5,1.2,0.8,2.5,0.8,3.9s-0.3,2.7-0.8,3.9c-0.5,1.2-1.2,2.3-2.1,3.2c-0.9,0.9-2,1.6-3.2,2.1
	S-839.6,315.1-841,315.1z M-841,313.1c0.9,0,1.8-0.1,2.6-0.4c0.8-0.3,1.6-0.7,2.3-1.3l-11.2-11.2c-0.5,0.7-1,1.5-1.3,2.3
	c-0.3,0.8-0.4,1.7-0.4,2.6c0,2.2,0.8,4.1,2.3,5.7C-845.1,312.3-843.2,313.1-841,313.1z M-834.7,310c0.5-0.7,1-1.5,1.3-2.3
	c0.3-0.8,0.4-1.7,0.4-2.6c0-2.2-0.8-4.1-2.3-5.7c-1.5-1.6-3.4-2.3-5.7-2.3c-0.9,0-1.8,0.1-2.6,0.4c-0.8,0.3-1.6,0.7-2.3,1.3
	L-834.7,310z"/>
<path d="M-863,355.1l11-19l11,19H-863z M-859.5,353.1h15.1l-7.5-13L-859.5,353.1z M-852,352.1c0.3,0,0.5-0.1,0.7-0.3
	c0.2-0.2,0.3-0.4,0.3-0.7s-0.1-0.5-0.3-0.7c-0.2-0.2-0.4-0.3-0.7-0.3s-0.5,0.1-0.7,0.3c-0.2,0.2-0.3,0.4-0.3,0.7s0.1,0.5,0.3,0.7
	C-852.5,352-852.3,352.1-852,352.1z M-853,349.1h2v-5h-2V349.1z"/>
<path d="M-848,256.4c0.3,0,0.5-0.1,0.7-0.3c0.2-0.2,0.3-0.4,0.3-0.7c0-0.3-0.1-0.5-0.3-0.7c-0.2-0.2-0.4-0.3-0.7-0.3
	s-0.5,0.1-0.7,0.3s-0.3,0.4-0.3,0.7c0,0.3,0.1,0.5,0.3,0.7C-848.5,256.3-848.3,256.4-848,256.4z M-849,252.4h2v-6h-2V252.4z
	 M-848,261.4c-1.4,0-2.7-0.3-3.9-0.8s-2.3-1.2-3.2-2.1c-0.9-0.9-1.6-2-2.1-3.2c-0.5-1.2-0.8-2.5-0.8-3.9c0-1.4,0.3-2.7,0.8-3.9
	c0.5-1.2,1.2-2.3,2.1-3.2c0.9-0.9,2-1.6,3.2-2.1s2.5-0.8,3.9-0.8c1.4,0,2.7,0.3,3.9,0.8c1.2,0.5,2.3,1.2,3.2,2.1
	c0.9,0.9,1.6,2,2.1,3.2c0.5,1.2,0.8,2.5,0.8,3.9c0,1.4-0.3,2.7-0.8,3.9c-0.5,1.2-1.2,2.3-2.1,3.2c-0.9,0.9-2,1.6-3.2,2.1
	C-845.3,261.1-846.6,261.4-848,261.4z M-848,259.4c2.2,0,4.1-0.8,5.7-2.3c1.5-1.6,2.3-3.4,2.3-5.7c0-2.2-0.8-4.1-2.3-5.7
	c-1.5-1.6-3.4-2.3-5.7-2.3s-4.1,0.8-5.7,2.3c-1.6,1.5-2.3,3.4-2.3,5.7c0,2.2,0.8,4.1,2.3,5.7C-852.1,258.6-850.2,259.4-848,259.4z"
	/>
<path d="M-884.9,342.7c0.3,0,0.5-0.1,0.7-0.3c0.2-0.2,0.3-0.4,0.3-0.7c0-0.3-0.1-0.5-0.3-0.7c-0.2-0.2-0.4-0.3-0.7-0.3
	s-0.5,0.1-0.7,0.3c-0.2,0.2-0.3,0.4-0.3,0.7c0,0.3,0.1,0.5,0.3,0.7C-885.4,342.6-885.1,342.7-884.9,342.7z M-885.9,338.7h2v-6h-2
	V338.7z M-888.6,346.7l-5.3-5.3v-7.5l5.3-5.3h7.5l5.3,5.3v7.5l-5.3,5.3H-888.6z M-887.8,344.7h5.8l4.1-4.1v-5.8l-4.1-4.1h-5.8
	l-4.1,4.1v5.8L-887.8,344.7z"/>
<g>
	<path fill="#FFFF00" d="M-757.7,357.9c-8.3-7.3-14.4-13.9-18.3-20.2c-4.1-6.1-6.1-11.9-6.1-17.3c0-8,2.4-14.1,7.3-19
		c4.9-4.6,10.5-7.1,17.1-7.1c6.3,0,12.2,2.4,17.1,7.1s7.3,11,7.3,19c0,5.4-1.9,11-6.1,17.3C-743.4,343.7-749.4,350.6-757.7,357.9z"
		/>
	<path d="M-764.7,337.3l-9.8-9.8v-14.1l9.8-9.8h14.1l9.8,9.8v14.1l-9.8,9.8H-764.7z M-763,328.4l5.3-5.3l5.3,5.3l2.6-2.6l-5.3-5.3
		l5.3-5.3l-2.6-2.6l-5.3,5.3l-5.3-5.3l-2.6,2.6l5.3,5.3l-5.3,5.3L-763,328.4z M-763.1,333.5h10.9l7.7-7.7V315l-7.7-7.7h-10.9
		l-7.7,7.7v10.9L-763.1,333.5z"/>
</g>
<path d="M-884.7,306.8l-9.8-9.8v-14.1l9.8-9.8h14.1l9.8,9.8v14.1l-9.8,9.8H-884.7z M-883,297.9l5.3-5.3l5.3,5.3l2.6-2.6l-5.3-5.3
	l5.3-5.3l-2.6-2.6l-5.3,5.3l-5.3-5.3l-2.6,2.6l5.3,5.3l-5.3,5.3L-883,297.9z M-883.1,303h10.9l7.7-7.7v-10.9l-7.7-7.7h-10.9
	l-7.7,7.7v10.9L-883.1,303z"/>
<path fill="#FFFF00" d="M-687.1,288c-8.3-7.3-14.4-13.9-18.3-20.2c-4.1-6.1-6.1-11.9-6.1-17.3c0-8,2.4-14.1,7.3-19
	c4.9-4.6,10.5-7.1,17.1-7.1c6.3,0,12.2,2.4,17.1,7.1s7.3,11,7.3,19c0,5.4-1.9,11-6.1,17.3C-672.8,273.8-678.8,280.7-687.1,288z"/>
</svg>
